# xmcd CD Database Entry
#
# Track frame offsets:
# 150
# 19892
# 39587
# 61962
# 81662
#
# Disc length: 1385 seconds
#
# Revision: 1
# Processed by: cddbd v1.4PL0 Copyright (c) Steve Scherf et al.
# Submitted via: tcd 2.0b
#
DISCID=3e056705
DTITLE=Kahala Tomomi - PRECIUS
DYEAR=1900
DGENRE=
TTITLE0=PRECIOUS japanese version
TTITLE1=PRECIOUS english version
TTITLE2=PRECIOUS neeza-remix
TTITLE3=PRECIOUS instrumental version
TTITLE4=PRECIOUS neeza-remix instrumental version
EXTD=
EXTT0=
EXTT1=
EXTT2=
EXTT3=
EXTT4=
PLAYORDER=
